<svg width="1253" height="811" viewBox="0 0 1253 811" fill="none" xmlns="http://www.w3.org/2000/svg">
<circle cx="317" cy="166" r="166" fill="url(#paint0_radial_0_1)" fill-opacity="0.9"/>
<path d="M24.3786 616C10.6266 621.28 2.39619 627.2 0 629.5V811H1253L1220.18 769.3C1215.39 761.9 1201.93 747.1 1186.43 747.1C1170.93 747.1 1160.59 727.7 1157.36 718C1149.76 713.4 1130.92 703.72 1116.42 701.8C1098.29 699.4 1054.53 671.8 1046.41 666.4C1039.91 662.08 1033.49 661.2 1031.09 661.3C1028.9 661.3 1023.84 661.12 1021.09 660.4C1018.34 659.68 1014.11 659.7 1012.34 659.8C994.211 660.1 955.393 660.82 945.141 661.3C934.89 661.78 927.951 660.5 925.763 659.8C917.429 657.5 899.135 652.72 892.634 652C886.133 651.28 881.382 648.7 879.819 647.5C874.818 642.8 863.942 632.08 860.441 626.8C856.941 621.52 851.482 620.2 849.19 620.2C846.064 620.5 838.375 620.56 832.625 618.4C826.874 616.24 817.518 616.5 813.559 616.9L761.989 619.9C759.384 619.8 754.05 619.06 753.55 616.9C753.05 614.74 750.841 614 749.8 613.9L746.987 614.5C737.235 618.1 723.546 618.8 717.92 618.7C719.17 613.66 714.482 608.4 711.982 606.4C706.981 602.8 695.729 595 690.728 592.6C684.477 589.6 679.477 589.6 673.538 589.9C668.788 590.14 667.6 589.2 667.6 588.7C659.349 583.42 653.327 582.5 651.347 582.7C647.597 583.6 637.47 585.04 626.969 583.6C616.467 582.16 614.884 583 615.405 583.6C603.403 592.24 588.317 596.2 582.275 597.1C576.961 597.5 564.147 595.72 555.396 585.4C546.644 575.08 539.872 572.7 537.58 572.8C535.184 572.8 529.142 573.58 524.141 576.7C519.14 579.82 513.931 580.4 511.952 580.3H482.26L472.571 563.5C471.216 561.2 466.882 557.38 460.381 560.5C453.88 563.62 447.88 563.8 445.692 563.5C437.461 563.4 416.125 563.74 396.622 565.9C372.243 568.6 352.865 565.9 333.487 565.9H285.355C272.603 562.78 256.497 560.6 250.037 559.9C216.532 562.3 195.446 550.3 189.091 544C172.588 547.6 160.962 560.1 157.211 565.9C126.362 603.885 82.4662 594.159 74.1483 592.316L74.0736 592.3C67.5726 590.86 63.0303 592.9 61.5717 594.1L50.6326 602.5C47.6113 604.8 38.1307 610.72 24.3786 616Z" fill="#1F033E"/>
<path d="M311.59 136.208C291.806 138.147 280.01 149.572 277.819 168.91C277.532 171.396 277.487 173.129 277.598 176.664C277.687 179.172 277.842 181.795 277.952 182.479C278.151 183.756 278.262 194.109 278.063 194.109C278.019 194.109 277.598 193.859 277.156 193.539C275.894 192.673 274.721 192.399 274.057 192.855C272.42 193.95 272.663 195.934 275.938 208.818C278.66 219.537 279.258 221.361 280.608 222.843C281.493 223.824 282.268 223.756 282.887 222.684C283.153 222.182 283.396 221.977 283.418 222.159C283.441 222.342 283.772 225.74 284.149 229.685C284.99 238.716 285.388 240.107 288.154 243.641C289.172 244.964 289.194 244.987 289.46 247.564C289.836 250.916 289.637 255.431 289.039 257.757C288.464 260.061 287.512 261.976 286.317 263.231C284.348 265.306 277.399 270.14 268.082 275.887C263.28 278.852 262.859 279.057 249.006 285.192C241.238 288.658 234.71 291.486 234.555 291.486C234.046 291.486 231.147 292.991 229.664 294.017C224.375 297.711 219.551 305.693 216.895 315.225C213.819 326.172 212.69 341.656 213.775 357.505C213.929 360.014 213.73 363.093 211.34 392.876L208.729 425.509L206.803 430.389C205.741 433.08 204.723 435.566 204.524 435.954C204.192 436.615 198.018 444.3 189.675 454.426C173.675 473.81 159.954 489.363 152.297 496.797C148.933 500.058 145.525 502.886 144.949 502.886C144.772 502.886 142.471 502.567 139.859 502.202C136.341 501.7 133.552 501.449 129.126 501.289L123.151 501.039L118.15 499.534L113.17 498.051L108.855 494.402C106.487 492.396 104.34 490.662 104.053 490.548C103.455 490.32 102.791 490.594 102.482 491.21C102.371 491.438 101.862 491.757 101.353 491.917C100.158 492.282 98.9407 493.422 98.4095 494.676C97.9006 495.839 97.8784 498.051 98.2546 510.161C98.4538 516.728 98.4759 516.979 99.1398 519.168C99.4939 520.423 99.8038 521.449 99.8038 521.472C99.8038 521.517 99.339 521.609 98.7636 521.677C98.1661 521.768 97.3252 521.882 96.8826 521.951L96.0637 522.087L94.1605 518.142C93.0983 515.999 91.9475 513.399 91.5934 512.373C90.841 510.297 90.3984 509.704 89.0706 509.043C87.787 508.405 87.1231 508.473 86.2158 509.294C85.1535 510.252 84.9765 511.255 85.6183 512.783C85.8838 513.422 86.7469 515.976 87.4993 518.461C88.7386 522.384 88.8714 523 88.5395 523.114C87.3666 523.478 85.9724 524.277 85.5076 524.847C84.888 525.599 84.8437 526.352 85.3306 527.401C85.8396 528.541 86.592 528.929 88.7165 529.157C89.7566 529.271 91.5713 529.613 92.7221 529.932C96.8604 531.072 117.619 537.139 117.729 537.23C117.774 537.298 115.826 539.396 113.414 541.905L108.988 546.488L105.558 548.267C102.437 549.886 102.083 550.114 101.596 551.004C101.021 552.076 100.888 553.49 101.331 554.037C101.486 554.242 101.95 554.516 102.371 554.653C103.057 554.903 103.61 554.744 108.833 552.965L114.52 551.004L119.168 547.332C121.735 545.325 126.847 541.517 130.565 538.872C134.283 536.226 137.469 533.946 137.646 533.809C137.824 533.672 137.469 534.174 136.828 534.926C131.516 541.357 129.37 549.179 130.875 556.614C131.649 560.331 133.729 565.302 136.053 568.906C139.55 574.31 144.064 578.301 150.637 581.745C152.12 582.52 153.802 583.546 154.399 584.002C154.974 584.458 156.015 585.279 156.678 585.804C160.839 589.065 165.84 590.456 173.497 590.502C205.276 590.639 222.604 590.547 228.602 590.274C262.97 588.586 288.708 584.641 312.807 577.366L316.127 576.363L324.913 575.656L333.676 574.949L337.527 576.408C352.177 581.973 369.328 586.716 383.381 589.088C393.45 590.798 400.443 591.437 409.185 591.459C420.006 591.459 427.663 590.388 435.276 587.811C438.175 586.83 438.286 586.784 441.849 584.071L445.478 581.334L449.417 580.627C451.564 580.24 453.578 579.761 453.866 579.578C454.153 579.373 457.495 576.864 461.279 573.968C466.347 570.091 468.516 568.563 469.489 568.199C476.969 565.348 482.856 560.171 486.043 553.626C488.035 549.544 488.853 546.078 489.008 540.97C489.119 537.8 489.03 536.249 488.499 532.441L488.344 531.323L490.203 532.35C491.221 532.92 494.32 534.584 497.086 536.044L502.087 538.689L502.995 537.07C503.504 536.158 503.88 535.314 503.813 535.177C503.747 535.041 501.379 532.304 498.502 529.111C495.647 525.919 493.346 523.273 493.39 523.228C493.434 523.182 493.899 523.273 494.408 523.433C494.939 523.593 496.289 523.729 497.374 523.729C500.007 523.752 501.313 523.273 502.973 521.723L504.234 520.514L512.643 520.126C517.269 519.921 521.628 519.693 522.314 519.624L523.576 519.488L524.505 518.005C525.59 516.204 526.519 514.151 527.139 512.099C527.781 509.932 527.781 504.14 527.139 502.407C526.608 500.902 525.922 500.149 525.125 500.149C524.24 500.149 523.509 501.061 522.735 503.228C521.54 506.466 519.703 510.685 519.504 510.685C517.689 510.708 511.869 510.297 511.869 510.161C511.869 510.046 513.418 508.154 515.299 505.964C517.18 503.752 518.729 501.905 518.729 501.86C518.729 501.472 518.065 500.195 517.689 499.853C517.025 499.237 515.83 499.123 514.613 499.556C514.038 499.762 513.529 499.898 513.507 499.853C513.484 499.83 512.643 495.497 511.648 490.229C510.674 484.961 509.744 480.309 509.634 479.921C509.302 478.872 508.394 478.188 507.509 478.302C507.067 478.371 506.779 478.302 506.779 478.143C506.779 477.732 506.026 477.116 505.54 477.116C504.787 477.116 504.035 477.823 499.255 483.046L494.541 488.177L490.646 489.385L486.751 490.617L484.981 490.366C480.333 489.727 478.054 489.841 476.084 490.822C475.221 491.255 474.867 491.301 473.473 491.164C471.26 490.959 469.556 490.48 467.697 489.545C466.458 488.929 465.705 488.291 463.935 486.421C461.014 483.297 455.946 477.413 448.776 468.793C445.545 464.893 439.636 457.778 435.63 452.943C431.625 448.109 426.999 442.636 425.34 440.788C423.702 438.918 422.175 437.185 421.976 436.912C421.732 436.592 420.869 433.035 419.719 427.63C415.182 406.444 412.526 390.344 411.84 380.014C411.641 377.186 411.685 375.339 411.973 370.436C412.46 362.819 412.526 344.416 412.106 339.262C411.287 329.296 410.269 322.797 408.499 316.343C405.356 304.804 400 296.708 393.207 293.173C392.41 292.763 389.953 291.668 387.785 290.779C377.959 286.742 368 282.25 361.848 279.08C350.739 273.333 339.519 264.622 337.261 259.947L336.597 258.578V252.193V245.831L337.815 243.938C340.647 239.559 342.683 233.493 343.458 227.176C343.568 226.127 343.679 224.827 343.679 224.303V223.368L345.317 222.547C348.282 221.019 350.584 217.918 351.867 213.653C352.266 212.376 353.062 209.936 353.638 208.248C355.74 202.137 356.426 197.872 355.563 196.23C355.054 195.227 354.102 195.067 352.531 195.683L351.314 196.162L350.163 194.953L348.99 193.767L349.433 190.233C350.207 183.916 350.562 179.264 350.694 174.132C350.849 168.477 350.65 166.744 349.322 161.362C345.56 146.174 336.332 137.736 321.77 136.185C319.336 135.934 314.312 135.934 311.59 136.208ZM251.595 424.095L252.945 441.199L247.081 466.854C243.85 480.97 241.128 492.669 241.039 492.852C240.928 493.034 240.154 493.308 239.202 493.467C234.533 494.334 225.769 496.204 221.963 497.207C216.364 498.644 213.885 499.488 211.451 500.788L209.459 501.86L206.361 501.837C203.75 501.837 202.864 501.746 200.828 501.221C198.018 500.491 193.038 498.827 192.861 498.553C192.795 498.462 195.672 495.725 199.235 492.487C224.53 469.454 235.949 458.417 237.52 455.452C240.574 449.66 244.314 435.589 248.386 414.631C249.05 411.188 249.67 407.858 249.758 407.22C249.869 406.353 249.957 406.194 250.09 406.536C250.179 406.787 250.865 414.677 251.595 424.095ZM383.491 440.72C385.904 449.226 388.05 456.455 388.493 457.413C394.512 470.891 417.926 489.363 451.785 507.378L457.097 510.206L455.083 510.069C446.341 509.499 424.056 504.117 398.009 496.341C394.003 495.155 390.33 494.06 389.865 493.924C389.4 493.81 388.98 493.581 388.935 493.445C388.869 493.308 386.7 478.302 384.089 460.127C381.455 441.929 379.264 426.695 379.176 426.262C379.11 425.829 379.087 425.509 379.154 425.578C379.22 425.646 381.168 432.442 383.491 440.72ZM504.721 496.09C504.831 499.511 504.898 502.338 504.876 502.384C504.743 502.612 502.419 501.13 501.689 500.354C500.14 498.713 500.007 496.683 501.246 494.106C501.888 492.76 503.968 489.887 504.322 489.887C504.411 489.887 504.588 492.692 504.721 496.09ZM108.147 504.847C110.271 505.6 111.334 506.808 111.909 509.134C112.197 510.411 112.219 510.981 112.02 512.646C111.754 514.927 110.537 519.077 110.139 519.077C109.585 519.077 108.435 518.165 107.881 517.276C106.576 515.269 105.115 508.861 105.115 505.235C105.115 504.505 105.137 504.482 106.111 504.482C106.642 504.482 107.571 504.642 108.147 504.847Z" fill="#1F033E"/>
<g filter="url(#filter0_f_0_1)">
<ellipse cx="314.254" cy="174.31" rx="22.2027" ry="22.8794" fill="#812A8B" fill-opacity="0.2"/>
</g>
<g filter="url(#filter1_b_0_1)">
<ellipse cx="314.267" cy="174.323" rx="10.1625" ry="10.4722" fill="#812A8B"/>
</g>
<g filter="url(#filter2_f_0_1)">
<ellipse cx="314.123" cy="174.174" rx="7.48072" ry="7.70872" fill="#D9D9D9"/>
</g>
<path d="M316.266 174.167C316.266 175.402 315.296 176.39 314.116 176.39C312.936 176.39 311.967 175.402 311.967 174.167C311.967 172.933 312.936 171.945 314.116 171.945C315.296 171.945 316.266 172.933 316.266 174.167Z" stroke="#812A8B" stroke-opacity="0.4" stroke-width="0.5"/>
<path d="M317.573 174.351C317.573 176.228 316.098 177.737 314.294 177.737C312.491 177.737 311.016 176.228 311.016 174.351C311.016 172.474 312.491 170.965 314.294 170.965C316.098 170.965 317.573 172.474 317.573 174.351Z" stroke="#812A8B" stroke-opacity="0.4" stroke-width="0.5"/>
<path d="M318.811 174.171C318.811 176.851 316.704 179.011 314.121 179.011C311.538 179.011 309.431 176.851 309.431 174.171C309.431 171.49 311.538 169.33 314.121 169.33C316.704 169.33 318.811 171.49 318.811 174.171Z" stroke="#812A8B" stroke-opacity="0.4" stroke-width="0.5"/>
<path d="M320.363 174.318C320.363 177.802 317.624 180.613 314.262 180.613C310.899 180.613 308.16 177.802 308.16 174.318C308.16 170.834 310.899 168.023 314.262 168.023C317.624 168.023 320.363 170.834 320.363 174.318Z" stroke="#812A8B" stroke-opacity="0.4" stroke-width="0.5"/>
<g filter="url(#filter3_f_0_1)">
<ellipse cx="314.254" cy="234.435" rx="22.2027" ry="22.8794" fill="#046DB6" fill-opacity="0.2"/>
</g>
<g filter="url(#filter4_b_0_1)">
<ellipse cx="314.267" cy="234.448" rx="10.1625" ry="10.4722" fill="#046DB6"/>
</g>
<g filter="url(#filter5_f_0_1)">
<ellipse cx="314.123" cy="234.299" rx="7.48072" ry="7.70872" fill="#D9D9D9"/>
</g>
<path d="M316.266 234.292C316.266 235.527 315.296 236.515 314.116 236.515C312.936 236.515 311.967 235.527 311.967 234.292C311.967 233.058 312.936 232.07 314.116 232.07C315.296 232.07 316.266 233.058 316.266 234.292Z" stroke="#046DB6" stroke-opacity="0.4" stroke-width="0.5"/>
<path d="M317.573 234.476C317.573 236.353 316.098 237.862 314.294 237.862C312.491 237.862 311.016 236.353 311.016 234.476C311.016 232.599 312.491 231.09 314.294 231.09C316.098 231.09 317.573 232.599 317.573 234.476Z" stroke="#046DB6" stroke-opacity="0.4" stroke-width="0.5"/>
<path d="M318.811 234.296C318.811 236.977 316.704 239.137 314.121 239.137C311.538 239.137 309.431 236.977 309.431 234.296C309.431 231.615 311.538 229.455 314.121 229.455C316.704 229.455 318.811 231.615 318.811 234.296Z" stroke="#046DB6" stroke-opacity="0.4" stroke-width="0.5"/>
<path d="M320.363 234.443C320.363 237.927 317.624 240.738 314.262 240.738C310.899 240.738 308.16 237.927 308.16 234.443C308.16 230.959 310.899 228.148 314.262 228.148C317.624 228.148 320.363 230.959 320.363 234.443Z" stroke="#046DB6" stroke-opacity="0.4" stroke-width="0.5"/>
<g filter="url(#filter6_f_0_1)">
<ellipse cx="314.254" cy="294.56" rx="22.2027" ry="22.8794" fill="#7AD2F6" fill-opacity="0.2"/>
</g>
<g filter="url(#filter7_b_0_1)">
<ellipse cx="314.267" cy="294.573" rx="10.1625" ry="10.4722" fill="#7AD2F6"/>
</g>
<g filter="url(#filter8_f_0_1)">
<ellipse cx="314.123" cy="294.424" rx="7.48072" ry="7.70872" fill="#D9D9D9"/>
</g>
<path d="M316.266 294.417C316.266 295.652 315.296 296.64 314.116 296.64C312.936 296.64 311.967 295.652 311.967 294.417C311.967 293.183 312.936 292.195 314.116 292.195C315.296 292.195 316.266 293.183 316.266 294.417Z" stroke="#7AD2F6" stroke-opacity="0.4" stroke-width="0.5"/>
<path d="M317.573 294.601C317.573 296.478 316.098 297.987 314.294 297.987C312.491 297.987 311.016 296.478 311.016 294.601C311.016 292.723 312.491 291.214 314.294 291.214C316.098 291.214 317.573 292.723 317.573 294.601Z" stroke="#7AD2F6" stroke-opacity="0.4" stroke-width="0.5"/>
<path d="M318.811 294.42C318.811 297.101 316.704 299.261 314.121 299.261C311.538 299.261 309.431 297.101 309.431 294.42C309.431 291.74 311.538 289.58 314.121 289.58C316.704 289.58 318.811 291.74 318.811 294.42Z" stroke="#7AD2F6" stroke-opacity="0.4" stroke-width="0.5"/>
<path d="M320.363 294.568C320.363 298.052 317.624 300.863 314.262 300.863C310.899 300.863 308.16 298.052 308.16 294.568C308.16 291.084 310.899 288.273 314.262 288.273C317.624 288.273 320.363 291.084 320.363 294.568Z" stroke="#7AD2F6" stroke-opacity="0.4" stroke-width="0.5"/>
<g filter="url(#filter9_f_0_1)">
<ellipse cx="314.254" cy="354.684" rx="22.2027" ry="22.8794" fill="#93CA5D" fill-opacity="0.2"/>
</g>
<g filter="url(#filter10_b_0_1)">
<ellipse cx="314.267" cy="354.697" rx="10.1625" ry="10.4722" fill="#93CA5D"/>
</g>
<g filter="url(#filter11_f_0_1)">
<ellipse cx="314.123" cy="354.549" rx="7.48072" ry="7.70872" fill="#D9D9D9"/>
</g>
<path d="M316.266 354.542C316.266 355.777 315.296 356.765 314.116 356.765C312.936 356.765 311.967 355.777 311.967 354.542C311.967 353.307 312.936 352.319 314.116 352.319C315.296 352.319 316.266 353.307 316.266 354.542Z" stroke="#93CA5D" stroke-opacity="0.4" stroke-width="0.5"/>
<path d="M317.573 354.725C317.573 356.603 316.098 358.111 314.294 358.111C312.491 358.111 311.016 356.603 311.016 354.725C311.016 352.848 312.491 351.339 314.294 351.339C316.098 351.339 317.573 352.848 317.573 354.725Z" stroke="#93CA5D" stroke-opacity="0.4" stroke-width="0.5"/>
<path d="M318.811 354.545C318.811 357.226 316.704 359.386 314.121 359.386C311.538 359.386 309.431 357.226 309.431 354.545C309.431 351.865 311.538 349.705 314.121 349.705C316.704 349.705 318.811 351.865 318.811 354.545Z" stroke="#93CA5D" stroke-opacity="0.4" stroke-width="0.5"/>
<path d="M320.363 354.693C320.363 358.176 317.624 360.988 314.262 360.988C310.899 360.988 308.16 358.176 308.16 354.693C308.16 351.209 310.899 348.397 314.262 348.397C317.624 348.397 320.363 351.209 320.363 354.693Z" stroke="#93CA5D" stroke-opacity="0.4" stroke-width="0.5"/>
<g filter="url(#filter12_f_0_1)">
<ellipse cx="314.254" cy="414.809" rx="22.2027" ry="22.8794" fill="#FFE231" fill-opacity="0.2"/>
</g>
<g filter="url(#filter13_b_0_1)">
<ellipse cx="314.267" cy="414.822" rx="10.1625" ry="10.4722" fill="#FFE231"/>
</g>
<g filter="url(#filter14_f_0_1)">
<ellipse cx="314.123" cy="414.674" rx="7.48072" ry="7.70872" fill="#D9D9D9"/>
</g>
<path d="M316.266 414.667C316.266 415.902 315.296 416.89 314.116 416.89C312.936 416.89 311.967 415.902 311.967 414.667C311.967 413.432 312.936 412.444 314.116 412.444C315.296 412.444 316.266 413.432 316.266 414.667Z" stroke="#FFE231" stroke-opacity="0.4" stroke-width="0.5"/>
<path d="M317.573 414.85C317.573 416.728 316.098 418.236 314.294 418.236C312.491 418.236 311.016 416.728 311.016 414.85C311.016 412.973 312.491 411.464 314.294 411.464C316.098 411.464 317.573 412.973 317.573 414.85Z" stroke="#FFE231" stroke-opacity="0.4" stroke-width="0.5"/>
<path d="M318.811 414.67C318.811 417.351 316.704 419.511 314.121 419.511C311.538 419.511 309.431 417.351 309.431 414.67C309.431 411.99 311.538 409.83 314.121 409.83C316.704 409.83 318.811 411.99 318.811 414.67Z" stroke="#FFE231" stroke-opacity="0.4" stroke-width="0.5"/>
<path d="M320.363 414.818C320.363 418.301 317.624 421.113 314.262 421.113C310.899 421.113 308.16 418.301 308.16 414.818C308.16 411.334 310.899 408.522 314.262 408.522C317.624 408.522 320.363 411.334 320.363 414.818Z" stroke="#FFE231" stroke-opacity="0.4" stroke-width="0.5"/>
<g filter="url(#filter15_f_0_1)">
<ellipse cx="314.254" cy="474.934" rx="22.2027" ry="22.8794" fill="#F79134" fill-opacity="0.2"/>
</g>
<g filter="url(#filter16_b_0_1)">
<ellipse cx="314.267" cy="474.947" rx="10.1625" ry="10.4722" fill="#F79134"/>
</g>
<g filter="url(#filter17_f_0_1)">
<ellipse cx="314.123" cy="474.799" rx="7.48072" ry="7.70872" fill="#D9D9D9"/>
</g>
<path d="M316.266 474.792C316.266 476.027 315.296 477.015 314.116 477.015C312.936 477.015 311.967 476.027 311.967 474.792C311.967 473.557 312.936 472.569 314.116 472.569C315.296 472.569 316.266 473.557 316.266 474.792Z" stroke="#F79134" stroke-opacity="0.4" stroke-width="0.5"/>
<path d="M317.573 474.975C317.573 476.853 316.098 478.361 314.294 478.361C312.491 478.361 311.016 476.853 311.016 474.975C311.016 473.098 312.491 471.589 314.294 471.589C316.098 471.589 317.573 473.098 317.573 474.975Z" stroke="#F79134" stroke-opacity="0.4" stroke-width="0.5"/>
<path d="M318.811 474.795C318.811 477.476 316.704 479.636 314.121 479.636C311.538 479.636 309.431 477.476 309.431 474.795C309.431 472.115 311.538 469.955 314.121 469.955C316.704 469.955 318.811 472.115 318.811 474.795Z" stroke="#F79134" stroke-opacity="0.4" stroke-width="0.5"/>
<path d="M320.363 474.943C320.363 478.426 317.624 481.238 314.262 481.238C310.899 481.238 308.16 478.426 308.16 474.943C308.16 471.459 310.899 468.647 314.262 468.647C317.624 468.647 320.363 471.459 320.363 474.943Z" stroke="#F79134" stroke-opacity="0.4" stroke-width="0.5"/>
<g filter="url(#filter18_f_0_1)">
<ellipse cx="314.254" cy="535.059" rx="22.2027" ry="22.8794" fill="#EAB971" fill-opacity="0.2"/>
</g>
<g filter="url(#filter19_b_0_1)">
<ellipse cx="314.267" cy="535.072" rx="10.1625" ry="10.4722" fill="#EB1D24"/>
</g>
<g filter="url(#filter20_f_0_1)">
<ellipse cx="314.123" cy="534.923" rx="7.48072" ry="7.70872" fill="#D9D9D9"/>
</g>
<path d="M316.266 534.917C316.266 536.152 315.296 537.14 314.116 537.14C312.936 537.14 311.967 536.152 311.967 534.917C311.967 533.682 312.936 532.694 314.116 532.694C315.296 532.694 316.266 533.682 316.266 534.917Z" stroke="#EA2E35" stroke-opacity="0.4" stroke-width="0.5"/>
<path d="M317.573 535.1C317.573 536.977 316.098 538.486 314.294 538.486C312.491 538.486 311.016 536.977 311.016 535.1C311.016 533.223 312.491 531.714 314.294 531.714C316.098 531.714 317.573 533.223 317.573 535.1Z" stroke="#EA2E35" stroke-opacity="0.4" stroke-width="0.5"/>
<path d="M318.811 534.92C318.811 537.601 316.704 539.761 314.121 539.761C311.538 539.761 309.431 537.601 309.431 534.92C309.431 532.24 311.538 530.08 314.121 530.08C316.704 530.08 318.811 532.24 318.811 534.92Z" stroke="#EA2E35" stroke-opacity="0.4" stroke-width="0.5"/>
<path d="M320.363 535.067C320.363 538.551 317.624 541.362 314.262 541.362C310.899 541.362 308.16 538.551 308.16 535.067C308.16 531.584 310.899 528.772 314.262 528.772C317.624 528.772 320.363 531.584 320.363 535.067Z" stroke="#EA2E35" stroke-opacity="0.4" stroke-width="0.5"/>
<defs>
<filter id="filter0_f_0_1" x="282.052" y="141.43" width="64.4053" height="65.7588" filterUnits="userSpaceOnUse" color-interpolation-filters="sRGB">
<feFlood flood-opacity="0" result="BackgroundImageFix"/>
<feBlend mode="normal" in="SourceGraphic" in2="BackgroundImageFix" result="shape"/>
<feGaussianBlur stdDeviation="5" result="effect1_foregroundBlur_0_1"/>
</filter>
<filter id="filter1_b_0_1" x="300.104" y="159.851" width="28.3252" height="28.9443" filterUnits="userSpaceOnUse" color-interpolation-filters="sRGB">
<feFlood flood-opacity="0" result="BackgroundImageFix"/>
<feGaussianBlur in="BackgroundImageFix" stdDeviation="2"/>
<feComposite in2="SourceAlpha" operator="in" result="effect1_backgroundBlur_0_1"/>
<feBlend mode="normal" in="SourceGraphic" in2="effect1_backgroundBlur_0_1" result="shape"/>
</filter>
<filter id="filter2_f_0_1" x="296.643" y="156.465" width="34.9619" height="35.4175" filterUnits="userSpaceOnUse" color-interpolation-filters="sRGB">
<feFlood flood-opacity="0" result="BackgroundImageFix"/>
<feBlend mode="normal" in="SourceGraphic" in2="BackgroundImageFix" result="shape"/>
<feGaussianBlur stdDeviation="5" result="effect1_foregroundBlur_0_1"/>
</filter>
<filter id="filter3_f_0_1" x="282.052" y="201.555" width="64.4053" height="65.7588" filterUnits="userSpaceOnUse" color-interpolation-filters="sRGB">
<feFlood flood-opacity="0" result="BackgroundImageFix"/>
<feBlend mode="normal" in="SourceGraphic" in2="BackgroundImageFix" result="shape"/>
<feGaussianBlur stdDeviation="5" result="effect1_foregroundBlur_0_1"/>
</filter>
<filter id="filter4_b_0_1" x="300.104" y="219.976" width="28.3252" height="28.9443" filterUnits="userSpaceOnUse" color-interpolation-filters="sRGB">
<feFlood flood-opacity="0" result="BackgroundImageFix"/>
<feGaussianBlur in="BackgroundImageFix" stdDeviation="2"/>
<feComposite in2="SourceAlpha" operator="in" result="effect1_backgroundBlur_0_1"/>
<feBlend mode="normal" in="SourceGraphic" in2="effect1_backgroundBlur_0_1" result="shape"/>
</filter>
<filter id="filter5_f_0_1" x="296.643" y="216.591" width="34.9619" height="35.4175" filterUnits="userSpaceOnUse" color-interpolation-filters="sRGB">
<feFlood flood-opacity="0" result="BackgroundImageFix"/>
<feBlend mode="normal" in="SourceGraphic" in2="BackgroundImageFix" result="shape"/>
<feGaussianBlur stdDeviation="5" result="effect1_foregroundBlur_0_1"/>
</filter>
<filter id="filter6_f_0_1" x="282.052" y="261.68" width="64.4053" height="65.7588" filterUnits="userSpaceOnUse" color-interpolation-filters="sRGB">
<feFlood flood-opacity="0" result="BackgroundImageFix"/>
<feBlend mode="normal" in="SourceGraphic" in2="BackgroundImageFix" result="shape"/>
<feGaussianBlur stdDeviation="5" result="effect1_foregroundBlur_0_1"/>
</filter>
<filter id="filter7_b_0_1" x="300.104" y="280.1" width="28.3252" height="28.9443" filterUnits="userSpaceOnUse" color-interpolation-filters="sRGB">
<feFlood flood-opacity="0" result="BackgroundImageFix"/>
<feGaussianBlur in="BackgroundImageFix" stdDeviation="2"/>
<feComposite in2="SourceAlpha" operator="in" result="effect1_backgroundBlur_0_1"/>
<feBlend mode="normal" in="SourceGraphic" in2="effect1_backgroundBlur_0_1" result="shape"/>
</filter>
<filter id="filter8_f_0_1" x="296.643" y="276.715" width="34.9619" height="35.4175" filterUnits="userSpaceOnUse" color-interpolation-filters="sRGB">
<feFlood flood-opacity="0" result="BackgroundImageFix"/>
<feBlend mode="normal" in="SourceGraphic" in2="BackgroundImageFix" result="shape"/>
<feGaussianBlur stdDeviation="5" result="effect1_foregroundBlur_0_1"/>
</filter>
<filter id="filter9_f_0_1" x="282.052" y="321.805" width="64.4053" height="65.7588" filterUnits="userSpaceOnUse" color-interpolation-filters="sRGB">
<feFlood flood-opacity="0" result="BackgroundImageFix"/>
<feBlend mode="normal" in="SourceGraphic" in2="BackgroundImageFix" result="shape"/>
<feGaussianBlur stdDeviation="5" result="effect1_foregroundBlur_0_1"/>
</filter>
<filter id="filter10_b_0_1" x="300.104" y="340.225" width="28.3252" height="28.9443" filterUnits="userSpaceOnUse" color-interpolation-filters="sRGB">
<feFlood flood-opacity="0" result="BackgroundImageFix"/>
<feGaussianBlur in="BackgroundImageFix" stdDeviation="2"/>
<feComposite in2="SourceAlpha" operator="in" result="effect1_backgroundBlur_0_1"/>
<feBlend mode="normal" in="SourceGraphic" in2="effect1_backgroundBlur_0_1" result="shape"/>
</filter>
<filter id="filter11_f_0_1" x="296.643" y="336.84" width="34.9619" height="35.4175" filterUnits="userSpaceOnUse" color-interpolation-filters="sRGB">
<feFlood flood-opacity="0" result="BackgroundImageFix"/>
<feBlend mode="normal" in="SourceGraphic" in2="BackgroundImageFix" result="shape"/>
<feGaussianBlur stdDeviation="5" result="effect1_foregroundBlur_0_1"/>
</filter>
<filter id="filter12_f_0_1" x="282.052" y="381.93" width="64.4053" height="65.7588" filterUnits="userSpaceOnUse" color-interpolation-filters="sRGB">
<feFlood flood-opacity="0" result="BackgroundImageFix"/>
<feBlend mode="normal" in="SourceGraphic" in2="BackgroundImageFix" result="shape"/>
<feGaussianBlur stdDeviation="5" result="effect1_foregroundBlur_0_1"/>
</filter>
<filter id="filter13_b_0_1" x="300.104" y="400.35" width="28.3252" height="28.9443" filterUnits="userSpaceOnUse" color-interpolation-filters="sRGB">
<feFlood flood-opacity="0" result="BackgroundImageFix"/>
<feGaussianBlur in="BackgroundImageFix" stdDeviation="2"/>
<feComposite in2="SourceAlpha" operator="in" result="effect1_backgroundBlur_0_1"/>
<feBlend mode="normal" in="SourceGraphic" in2="effect1_backgroundBlur_0_1" result="shape"/>
</filter>
<filter id="filter14_f_0_1" x="296.643" y="396.965" width="34.9619" height="35.4175" filterUnits="userSpaceOnUse" color-interpolation-filters="sRGB">
<feFlood flood-opacity="0" result="BackgroundImageFix"/>
<feBlend mode="normal" in="SourceGraphic" in2="BackgroundImageFix" result="shape"/>
<feGaussianBlur stdDeviation="5" result="effect1_foregroundBlur_0_1"/>
</filter>
<filter id="filter15_f_0_1" x="282.052" y="442.055" width="64.4053" height="65.7588" filterUnits="userSpaceOnUse" color-interpolation-filters="sRGB">
<feFlood flood-opacity="0" result="BackgroundImageFix"/>
<feBlend mode="normal" in="SourceGraphic" in2="BackgroundImageFix" result="shape"/>
<feGaussianBlur stdDeviation="5" result="effect1_foregroundBlur_0_1"/>
</filter>
<filter id="filter16_b_0_1" x="300.104" y="460.475" width="28.3252" height="28.9443" filterUnits="userSpaceOnUse" color-interpolation-filters="sRGB">
<feFlood flood-opacity="0" result="BackgroundImageFix"/>
<feGaussianBlur in="BackgroundImageFix" stdDeviation="2"/>
<feComposite in2="SourceAlpha" operator="in" result="effect1_backgroundBlur_0_1"/>
<feBlend mode="normal" in="SourceGraphic" in2="effect1_backgroundBlur_0_1" result="shape"/>
</filter>
<filter id="filter17_f_0_1" x="296.643" y="457.09" width="34.9619" height="35.4175" filterUnits="userSpaceOnUse" color-interpolation-filters="sRGB">
<feFlood flood-opacity="0" result="BackgroundImageFix"/>
<feBlend mode="normal" in="SourceGraphic" in2="BackgroundImageFix" result="shape"/>
<feGaussianBlur stdDeviation="5" result="effect1_foregroundBlur_0_1"/>
</filter>
<filter id="filter18_f_0_1" x="282.052" y="502.18" width="64.4053" height="65.7588" filterUnits="userSpaceOnUse" color-interpolation-filters="sRGB">
<feFlood flood-opacity="0" result="BackgroundImageFix"/>
<feBlend mode="normal" in="SourceGraphic" in2="BackgroundImageFix" result="shape"/>
<feGaussianBlur stdDeviation="5" result="effect1_foregroundBlur_0_1"/>
</filter>
<filter id="filter19_b_0_1" x="300.104" y="520.6" width="28.3252" height="28.9443" filterUnits="userSpaceOnUse" color-interpolation-filters="sRGB">
<feFlood flood-opacity="0" result="BackgroundImageFix"/>
<feGaussianBlur in="BackgroundImageFix" stdDeviation="2"/>
<feComposite in2="SourceAlpha" operator="in" result="effect1_backgroundBlur_0_1"/>
<feBlend mode="normal" in="SourceGraphic" in2="effect1_backgroundBlur_0_1" result="shape"/>
</filter>
<filter id="filter20_f_0_1" x="296.643" y="517.215" width="34.9619" height="35.4175" filterUnits="userSpaceOnUse" color-interpolation-filters="sRGB">
<feFlood flood-opacity="0" result="BackgroundImageFix"/>
<feBlend mode="normal" in="SourceGraphic" in2="BackgroundImageFix" result="shape"/>
<feGaussianBlur stdDeviation="5" result="effect1_foregroundBlur_0_1"/>
</filter>
<radialGradient id="paint0_radial_0_1" cx="0" cy="0" r="1" gradientUnits="userSpaceOnUse" gradientTransform="translate(317 166) rotate(90) scale(166)">
<stop stop-color="white"/>
<stop offset="1" stop-color="white" stop-opacity="0"/>
</radialGradient>
</defs>
</svg>
