<svg width="170" height="57" viewBox="0 0 170 57" fill="none" xmlns="http://www.w3.org/2000/svg">
<path d="M41.6968 0.779785C29.3373 12.8278 17.9182 35.9866 40.8906 56.8698C51.235 48.5701 66.1469 25.6789 41.6968 0.779785Z" fill="white" fill-opacity="0.5"/>
<path d="M63.9327 4.8606C50.4337 9.13747 29.4499 29.0517 41.6125 56.4504C56.1809 52.5744 77.4321 38.541 63.9327 4.8606Z" fill="white" fill-opacity="0.5"/>
<path d="M19.0097 4.8606C32.5086 9.13747 53.4925 29.0517 41.3299 56.4504C26.7615 52.5744 5.51025 38.541 19.0097 4.8606Z" fill="white" fill-opacity="0.5"/>
<path d="M41.5671 56.183C40.6316 41.7486 48.7846 17.6912 83.0003 17.6912C83.0003 31.19 79.258 60.5935 41.5671 56.183Z" fill="white" fill-opacity="0.5"/>
<path d="M41.4329 56.183C42.3684 41.7486 34.2154 17.6912 -0.00030899 17.6912C-0.00030899 31.19 3.74204 60.5935 41.4329 56.183Z" fill="white" fill-opacity="0.5"/>
<g clip-path="url(#clip0_0_1)">
<path d="M22.1536 56.7823C22.5075 56.891 22.6877 56.8923 22.6772 56.4497C22.6587 55.6234 22.8706 54.8573 23.3534 54.1738C23.4626 54.0206 23.5481 53.853 23.4678 53.6421C22.643 53.8687 21.8076 53.8831 21.03 53.7364C19.8881 53.5203 18.8238 53.0332 18.0923 52.0498C17.8674 51.7473 17.6542 51.4251 17.9779 51.0519C18.3252 50.6499 18.5396 51.1239 18.8409 51.1999C19.0685 50.7743 19.2461 50.2859 19.6895 50.0633C20.017 49.8983 20.0973 49.7568 19.9592 49.4229C19.8763 49.2239 19.8855 48.9737 20.1223 48.8454C20.342 48.7262 20.4854 48.8926 20.6354 49.0235C20.8327 49.195 21.055 49.3417 21.2366 49.5277C21.555 49.8524 21.922 50.1431 22.3759 50.0633C22.7495 49.9991 23.0587 50.0737 23.3915 50.1811C24.3914 50.5006 24.3914 50.498 24.9505 49.5944C26.0003 47.9327 27.0515 46.2722 28.1013 44.6105C29.4524 44.4939 29.4524 44.4939 29.3617 43.1163C29.359 43.0744 29.3367 43.0338 29.3235 42.9919C29.4814 42.7837 29.6393 42.5755 29.7971 42.3686C29.8326 42.3215 29.8682 42.2743 29.9037 42.2272C29.9603 42.1041 30.0155 41.9797 30.0721 41.8566C30.1076 41.8068 30.1431 41.7571 30.1773 41.7073L30.1826 41.7021C30.5036 41.7466 30.4418 41.9954 30.4536 42.2049C30.5417 43.7187 31.5127 44.5895 33.0756 44.5555C32.7125 45.4342 32.1797 46.191 31.4955 46.8589C30.1023 48.2168 28.7315 49.5984 27.3567 50.9734C27.1541 51.1763 26.9015 51.361 26.8805 51.7761C28.8499 51.23 30.768 50.7272 32.6651 50.1549C33.2847 49.9677 33.6294 49.2933 33.5137 48.6084C33.4005 47.9366 33.4966 47.3002 33.6847 46.6743C34.0241 45.5415 34.4872 44.4704 35.437 43.6873C35.5028 43.7973 35.5462 43.9308 35.637 44.0146C36.754 45.0478 39.443 44.8789 40.3902 43.7082C40.5152 43.5524 40.7349 43.3939 40.6481 43.1412C40.4981 42.7025 39.393 42.4118 39.0036 42.6999C38.2143 43.2839 37.5078 43.3036 36.8513 42.7588C36.5132 42.4786 36.4264 42.0805 36.5014 41.6955C36.5856 41.2568 36.9987 41.448 37.2683 41.4428C38.2748 41.4205 39.2825 41.4179 40.2889 41.4402C40.7481 41.4506 40.9915 41.3328 40.9612 40.8208C40.9283 40.2773 40.9967 39.726 40.9362 39.1878C40.856 38.4637 40.6165 37.8011 39.9627 37.3506C38.6063 36.4156 36.9552 36.4392 35.5989 37.4606C35.2989 37.6871 35.2002 37.6452 35.1674 37.2799C35.0858 36.4117 34.8161 35.5854 34.5596 34.7591C34.5096 34.6006 34.4846 34.3898 34.2412 34.4147C33.986 34.4409 34.0294 34.6517 34.0241 34.8167C34.0162 35.0786 34.0294 35.3392 34.0241 35.6011C33.9952 37.0664 34.3227 36.8582 32.6862 36.8779C32.2139 36.8831 32.0126 36.6487 32.0218 36.1904C32.031 35.7333 32.0336 35.275 32.0205 34.818C32.0113 34.4841 32.1783 33.9943 31.485 34.2313C31.2259 34.3204 31.2798 33.9446 31.1206 33.845C30.897 32.9651 30.897 32.068 30.989 31.1789C31.1272 29.8471 31.7205 28.8493 33.0795 28.3648C34.4162 27.8868 35.7173 27.3119 37.0329 26.7763C38.1432 26.3246 38.8471 25.2874 38.7379 24.0971C38.6681 23.3297 38.6195 22.4471 37.9406 21.9639C37.1276 21.3851 36.7092 20.7042 36.7737 19.722C36.8039 19.671 36.8342 19.6199 36.8645 19.5688C37.1684 18.7713 36.9158 17.9293 37.0565 17.1188C37.0802 17.0624 37.1052 17.0074 37.1289 16.9511C37.1723 16.6905 37.3039 16.4444 37.2591 16.1694C37.5644 15.8564 37.6643 15.4243 37.9209 15.072C39.3022 13.1758 43.3964 13.2452 44.637 15.0144C44.9001 15.3889 45.0422 15.8223 45.329 16.1733C45.4039 16.5229 45.4802 16.8726 45.5552 17.2222C45.4303 17.3257 45.4579 17.4108 45.5868 17.4841C45.6736 18.1768 45.45 18.8918 45.7381 19.5701C45.7684 19.6199 45.7999 19.671 45.8302 19.7207H45.8289C45.817 19.7653 45.8236 19.8059 45.8473 19.8451C45.8933 20.6217 45.6092 21.338 44.9882 21.7164C44.4238 22.0595 44.2344 22.5296 44.0568 23.0547C43.4595 24.8213 44.2568 26.3298 45.7763 26.8837C47.0655 27.3538 48.3245 27.9051 49.6033 28.4093C50.4584 28.7458 51.0649 29.2762 51.3675 30.1889C51.4359 30.3958 51.4478 30.3853 51.5622 30.7114C51.5885 30.7874 51.603 30.9 51.6148 30.9733C51.6477 31.1998 51.6622 31.1985 51.6872 31.4172C51.7043 31.5639 51.7003 31.7119 51.7056 31.8598C51.6727 32.1034 51.7003 32.1911 51.7069 32.4465C51.7109 32.5945 51.6832 32.7411 51.6727 32.8891C51.5714 32.9782 51.4596 33.0659 51.6161 33.2021C51.6056 33.2767 51.5964 33.3514 51.5859 33.426C51.3096 33.7455 51.2254 34.1069 51.3451 34.5129C51.3451 35.0786 51.3438 35.6456 51.3438 36.2113C51.303 36.8517 50.9544 36.9512 50.4229 36.7312C50.1124 36.6029 49.7809 36.6133 49.4612 36.6448C48.8389 36.705 48.4377 36.578 48.5745 35.8303C48.6008 35.6875 48.6008 35.5225 48.4324 35.4348C48.4364 35.2999 48.439 35.1663 48.443 35.0315C48.6495 34.8822 48.6061 34.7002 48.5022 34.5194C48.4535 34.4343 48.3574 34.4081 48.2772 34.4553C48.0496 34.5888 48.068 34.8128 48.0864 35.0328C47.9417 35.3209 47.8351 35.6207 47.8115 35.9455C47.6536 35.9861 47.5115 36.0332 47.7154 36.2074C47.6852 36.4562 47.6549 36.7063 47.626 36.9551C47.4142 37.1673 47.1997 37.3768 46.9905 37.5915C46.438 38.1599 46.267 39.6723 46.759 40.259C47.0392 40.5929 47.1984 40.9281 47.2326 41.3446C47.2181 41.5122 47.2037 41.6798 47.1892 41.8474C47.055 41.9234 47.0471 42.0085 47.1695 42.1028C47.1655 42.235 47.1616 42.3673 47.1576 42.4982C46.6274 42.7209 46.4275 43.1844 46.2301 43.6794C46.0854 44.0448 46.2065 44.2202 46.5209 44.3093C47.0392 44.4573 47.5655 44.5738 48.0891 44.7034C48.1548 44.7938 48.2206 44.8829 48.2864 44.9732C48.2443 45.0465 48.2798 45.0832 48.3495 45.1028C48.81 46.1871 49.2744 47.274 49.1376 48.4918C49.0705 49.0864 49.2547 49.4609 49.8927 49.5408C50.1006 49.5669 50.2914 49.7031 50.3584 49.8734C50.5808 50.4351 51.0702 50.5098 51.5622 50.6316C52.3674 50.8306 53.1633 51.0624 53.9632 51.2798C54.5407 51.4369 55.1182 51.5928 55.6958 51.7486C54.9512 50.6984 54.1039 49.804 53.2041 48.9515C51.8911 47.7088 50.4782 46.5485 49.652 44.8829C49.7927 44.6694 49.9967 44.6118 50.2453 44.5542C51.6661 44.2229 52.4042 43.1595 52.1963 41.8003C52.3055 41.8697 52.4463 41.9155 52.5173 42.0124C53.6474 43.5603 54.8038 45.0871 55.7734 46.7463C56.3628 47.7559 56.9298 48.7904 57.7626 49.6377C58.0086 50.2846 58.4151 50.5111 59.0742 50.1667C59.2439 50.079 59.4571 50.0069 59.6412 50.024C60.6082 50.1117 61.3291 49.6979 61.9251 48.9868C62.0777 48.8048 62.2856 48.7249 62.5105 48.8651C62.7105 48.9895 62.6895 49.1964 62.6671 49.3954C62.646 49.5905 62.3987 49.8367 62.7066 49.965C63.2802 50.2047 63.5078 50.7324 63.8117 51.2339C64.0892 51.0323 64.351 50.6604 64.6668 51.027C64.9299 51.3322 64.776 51.6674 64.5694 51.9843C64.1063 52.698 63.3893 53.0607 62.6566 53.4012C61.5186 53.9302 60.3253 53.8556 59.1097 53.6369C59.1163 53.743 59.0992 53.8137 59.1255 53.8608C59.6083 54.7238 59.9938 55.6051 59.9543 56.6317C59.9399 57.0115 60.2438 56.8452 60.4359 56.781" fill="#E34D8E"/>
<path d="M42.0418 41.4948C42.0405 41.4948 42.0392 41.4948 42.0392 41.4948C42.0392 42.1705 42.03 42.8462 42.0418 43.5206C42.0602 44.6755 41.8169 44.5459 43.143 44.5786C43.6087 44.5904 43.7416 44.4307 43.7337 43.9802C43.7087 42.6733 43.7245 41.3664 43.7258 40.0595C43.7271 38.6767 44.0442 38.3546 45.4545 38.2891C45.6386 38.2812 45.9057 38.3598 45.9373 38.0861C45.9846 37.6802 46.1123 37.1957 45.8807 36.8788C45.686 36.6129 45.2203 36.6182 44.8453 36.6745C44.673 36.6994 44.5007 36.7269 44.3283 36.7517C42.9759 36.9429 42.0616 37.9748 42.0458 39.3393C42.0353 40.0569 42.0418 40.7758 42.0418 41.4948Z" fill="#E34D8E"/>
<path d="M20.9937 51.2126C20.9885 50.8616 20.6201 50.2776 20.4057 50.2776C20.2031 50.2789 19.6861 51.1733 19.665 51.5124C19.6387 51.9354 19.886 52.1201 20.2439 52.1593C20.678 52.2091 21.003 51.7744 20.9937 51.2126Z" fill="#E34D8E"/>
<path d="M61.6243 51.2125C61.6203 51.6774 61.7887 51.9576 62.1242 52.1069C62.4097 52.2339 62.6557 52.1448 62.8267 51.9419C63.0951 51.625 62.8859 51.2871 62.782 50.9663C62.7504 50.8707 62.6741 50.7699 62.5899 50.7136C62.4189 50.5996 62.3742 50.2343 62.1492 50.3325C61.89 50.4451 61.6467 50.6756 61.623 51.0187C61.6203 51.0828 61.6243 51.147 61.6243 51.2125Z" fill="#E34D8E"/>
<path d="M30.1855 41.699C30.6184 40.709 30.8986 39.685 31.017 38.6046C31.1801 37.1249 31.5011 35.7198 31.1867 34.2322C31.1643 34.13 31.1209 33.9506 31.1249 33.8433C31.2841 33.9428 31.2301 34.3186 31.4893 34.2296C32.1826 33.9912 32.0155 34.4823 32.0247 34.8162C32.0366 35.2732 32.0353 35.7316 32.0261 36.1886C32.0168 36.6456 32.2181 36.8813 32.6904 36.8761C34.327 36.8577 34.0008 37.0646 34.0284 35.5993C34.0336 35.3374 34.0218 35.0755 34.0284 34.8149C34.0336 34.6499 33.9902 34.4378 34.2455 34.4129C34.4888 34.388 34.5151 34.5975 34.5638 34.7573C34.8217 35.5849 35.0914 36.4099 35.1716 37.2781C35.2058 37.6434 35.3032 37.6853 35.6031 37.4588C36.9595 36.4374 38.6106 36.4151 39.9669 37.3488C40.6221 37.8006 40.8602 38.4619 40.9405 39.186C40.9997 39.7242 40.9326 40.2755 40.9655 40.819C40.9957 41.331 40.7523 41.4489 40.2932 41.4384C39.2868 41.4161 38.279 41.4187 37.2726 41.441C37.0029 41.4462 36.5898 41.2564 36.5056 41.6937C36.432 42.0787 36.5175 42.4768 36.8556 42.7571C37.5107 43.3018 38.2172 43.2809 39.0079 42.6981C39.3973 42.41 40.5024 42.7021 40.6524 43.1394C40.7392 43.3935 40.5195 43.5519 40.3945 43.7064C39.4486 44.8771 36.7582 45.0461 35.6413 44.0129C35.5505 43.9291 35.5071 43.7968 35.4413 43.6868C35.4913 39.5553 35.0045 35.9751 34.2757 35.2418C34.2757 36.8774 34.2415 38.3584 34.2336 39.9744C34.2323 40.2035 34.2073 40.4589 34.1534 40.7941C33.8942 40.3711 34.0507 39.9089 34.0429 39.4663C34.0231 38.2694 34.0389 38.2851 32.8115 38.289C32.2615 38.2903 32.0076 38.492 32.0221 39.0564C32.0432 39.8591 32.0366 40.6632 32.0208 41.4659C32.0142 41.8103 32.1366 42.101 32.2931 42.3891C32.5247 42.8147 32.9654 42.8775 33.3627 42.8854C33.7311 42.8919 33.6876 42.4899 33.76 42.2359C33.8008 42.0958 33.8547 41.9989 34.0021 41.97C33.9416 42.9181 33.4311 43.7078 33.0772 44.5524C31.5143 44.5864 30.5434 43.7156 30.4552 42.2018C30.4447 41.9923 30.5066 41.7435 30.1855 41.699ZM37.8291 40.1394C38.1133 40.1394 38.4001 40.1184 38.6816 40.1446C39.1315 40.1865 39.2855 40.0254 39.296 39.5592C39.3105 38.9307 38.9645 38.5693 38.4843 38.3349C37.9541 38.0769 36.9885 38.2943 36.7227 38.6884C36.478 39.0512 36.2451 39.4794 36.4227 39.9089C36.5925 40.3201 37.0437 40.0883 37.37 40.1341C37.5199 40.1564 37.6765 40.138 37.8291 40.1394Z" fill="#E34D8E"/>
<path d="M49.6545 44.8785C49.2783 44.3612 49.1573 43.7484 49.0086 43.146C49.2941 43.1761 49.5625 43.1041 49.8414 43.0517C50.3058 42.9653 50.5399 42.6811 50.5649 42.2621C50.5899 41.8588 50.2834 41.6493 49.9242 41.555C49.4861 41.4397 49.0402 41.3533 48.5981 41.2538C48.5626 41.022 48.5521 40.9343 48.5429 40.7444C48.4613 38.9897 48.4205 37.379 48.4389 35.6229C48.4389 35.5862 48.4363 35.4304 48.4363 35.4304C48.6047 35.5195 48.6047 35.6832 48.5784 35.8259C48.4416 36.5736 48.8428 36.7006 49.4651 36.6404C49.7848 36.609 50.1163 36.5985 50.4268 36.7268C50.9583 36.9468 51.3069 36.8473 51.3477 36.207C51.3753 36.4584 51.3885 36.6744 51.3793 36.8643C51.3517 37.5099 51.5635 38.0926 51.6266 38.7016C50.8649 38.5575 50.1466 38.2197 49.3375 38.2707C48.5258 38.3218 48.4047 38.4344 48.4626 39.2424C48.5047 39.8369 48.9665 39.8081 49.3559 39.8827C50.3834 40.0818 51.4359 40.0778 52.0371 41.1006C52.095 41.3926 52.1292 41.7841 52.1989 41.7985C52.4068 43.1552 51.6687 44.2185 50.2479 44.5498C49.9992 44.6074 49.7953 44.665 49.6545 44.8785Z" fill="#E34D8E"/>
<path d="M42.0415 41.4947C42.0415 40.7758 42.035 40.0569 42.0428 39.338C42.0586 37.9735 42.973 36.9429 44.3254 36.7504C44.4977 36.7255 44.6701 36.6993 44.8424 36.6731C45.2174 36.6181 45.6831 36.6129 45.8778 36.8774C46.1093 37.1943 45.9817 37.6775 45.9344 38.0848C45.9028 38.3585 45.6344 38.2799 45.4515 38.2877C44.0425 38.3519 43.7255 38.6741 43.7229 40.0582C43.7215 41.3651 43.7058 42.6733 43.7307 43.9789C43.74 44.4293 43.6071 44.5891 43.14 44.5773C41.8139 44.5446 42.0573 44.6742 42.0389 43.5192C42.0284 42.8435 42.0363 42.1691 42.0363 41.4934C42.0402 41.4947 42.0415 41.4947 42.0415 41.4947Z" fill="#E34D8E"/>
<path d="M47.627 36.9521C47.3599 38.2564 47.2481 39.2385 47.2692 40.5572C47.2718 40.734 47.2692 40.9226 47.2336 41.3403C47.2007 40.9239 47.0416 40.5886 46.7613 40.2547C46.2693 39.6681 46.439 38.1556 46.9929 37.5873C47.2021 37.3738 47.4152 37.1643 47.627 36.9521Z" fill="#E34D8E"/>
<path d="M47.1608 42.4951C47.1069 43.383 47.591 44.0456 48.0923 44.7003C47.5687 44.5707 47.0424 44.4541 46.5241 44.3062C46.2083 44.2158 46.0873 44.0416 46.2333 43.6763C46.4307 43.1813 46.6293 42.719 47.1608 42.4951Z" fill="#E34D8E"/>
<path d="M28.1045 44.6088C28.4097 43.992 28.8557 43.4826 29.3267 42.9902C29.3398 43.0308 29.3622 43.0727 29.3648 43.1146C29.4556 44.4922 29.4556 44.4922 28.1045 44.6088Z" fill="#E34D8E"/>
<path d="M48.4467 35.0284C48.327 34.9472 48.2086 34.9537 48.0902 35.0297C48.0717 34.8097 48.0533 34.5858 48.2809 34.4522C48.3625 34.405 48.4572 34.4312 48.5059 34.5164C48.6098 34.6971 48.6532 34.8791 48.4467 35.0284Z" fill="#E34D8E"/>
<path d="M51.3489 34.5085C51.2292 34.1026 51.3134 33.7411 51.5897 33.4216L51.3489 34.5085Z" fill="#E34D8E"/>
<path d="M45.5588 17.2192C45.6996 17.2913 45.7285 17.3764 45.5904 17.4811C45.4628 17.4091 45.4338 17.3227 45.5588 17.2192Z" fill="#F492C7"/>
<path d="M51.6197 33.1977C51.4632 33.0615 51.575 32.9738 51.6763 32.8848L51.6197 33.1977Z" fill="#E34D8E"/>
<path d="M47.1923 41.8442C47.1897 41.9726 47.1778 41.9451 47.1726 42.0996C47.0502 42.004 47.0581 41.9189 47.1923 41.8442Z" fill="#E34D8E"/>
<path d="M47.8138 35.9424C47.7743 36.0485 47.7743 36.0485 47.7165 36.2043C47.5152 36.0314 47.6573 35.9843 47.8138 35.9424Z" fill="#E34D8E"/>
<path d="M37.0605 17.1171C37.0842 17.0608 37.1092 17.0058 37.1329 16.9495C37.1079 17.0045 37.0842 17.0608 37.0605 17.1171Z" fill="#F492C7"/>
<path d="M36.7764 19.7204C36.8066 19.6693 36.8369 19.6182 36.8671 19.5671C36.8382 19.6182 36.8079 19.6693 36.7764 19.7204Z" fill="#F492C7"/>
<path d="M45.7422 19.5671C45.7724 19.6169 45.804 19.668 45.8343 19.7177C45.804 19.668 45.7738 19.6182 45.7422 19.5671Z" fill="#F492C7"/>
<path d="M45.8333 19.7178C45.9306 19.7466 45.9425 19.7872 45.8517 19.8422C45.828 19.8042 45.8228 19.7623 45.8333 19.7178Z" fill="#F492C7"/>
<path d="M30.0752 41.8536C30.1107 41.8039 30.1462 41.7541 30.1818 41.7043C30.1449 41.7554 30.1094 41.8039 30.0752 41.8536Z" fill="#E34D8E"/>
<path d="M29.7988 42.3655C29.8343 42.3184 29.8699 42.2713 29.9067 42.2241C29.8712 42.2713 29.8343 42.3184 29.7988 42.3655Z" fill="#E34D8E"/>
<path d="M48.2889 44.9702C48.3099 45.0134 48.331 45.0566 48.352 45.0999C48.281 45.0802 48.2468 45.0435 48.2889 44.9702Z" fill="#E34D8E"/>
<path d="M52.0331 41.2552C51.4332 40.2325 50.3847 40.0806 49.3559 39.8828C48.9665 39.8082 48.5047 39.837 48.4626 39.2425C48.4047 38.4358 48.5257 38.3219 49.3375 38.2708C50.1465 38.2198 50.8649 38.5576 51.6266 38.7017C51.6529 38.864 51.6792 39.0277 51.7055 39.1901C51.6305 39.3027 51.6318 39.4088 51.7318 39.507C51.6661 40.1185 52.0805 40.6476 52.0331 41.2552Z" fill="#E34D8E"/>
<path d="M51.7335 39.5068C51.6335 39.4086 51.6322 39.3026 51.7072 39.1899C51.7151 39.296 51.7243 39.4008 51.7335 39.5068Z" fill="#E34D8E"/>
<path d="M34.153 40.7941C34.103 41.187 34.053 41.5785 34.003 41.9714C33.8544 42.0002 33.8004 42.0971 33.7609 42.2372C33.6886 42.4913 33.7307 42.8933 33.3636 42.8867C32.9663 42.8789 32.5256 42.816 32.2941 42.3904C32.1375 42.1023 32.0152 41.8103 32.0217 41.4672C32.0375 40.6645 32.0428 39.8605 32.0231 39.0577C32.0086 38.4933 32.2625 38.2917 32.8124 38.2904C34.0398 38.2864 34.0241 38.2707 34.0438 39.4676C34.0504 39.9089 33.8938 40.3712 34.153 40.7941Z" fill="#E34D8E"/>
<path d="M37.8292 40.138C37.6766 40.138 37.52 40.155 37.3701 40.1341C37.0438 40.0882 36.5926 40.32 36.4228 39.9088C36.2452 39.4793 36.4781 39.0511 36.7228 38.6884C36.9885 38.2929 37.9542 38.0768 38.4844 38.3348C38.9632 38.5679 39.3106 38.9293 39.2961 39.5592C39.2856 40.0254 39.133 40.1864 38.6817 40.1445C38.4002 40.117 38.1134 40.1393 37.8292 40.138Z" fill="#E34D8E"/>
<path d="M48.598 41.2537C49.0401 41.3532 49.486 41.4396 49.9241 41.5548C50.2833 41.6491 50.5898 41.8587 50.5648 42.262C50.5385 42.681 50.3057 42.9652 49.8412 43.0516C49.5637 43.104 49.294 43.176 49.0085 43.1459C48.7927 42.533 48.5151 41.932 48.598 41.2537Z" fill="#E34D8E"/>
<path d="M62.1367 50.1607L62.1367 50.1606C61.8234 50.3843 60.9282 50.6973 61.0624 51.6366C61.1407 52.1842 61.6216 52.4274 62.2573 52.1733C62.9286 51.9049 62.808 51.234 62.4052 50.9657C62.0024 50.6973 62.0919 50.3396 62.1367 50.1607Z" fill="#EF99BE"/>
<path d="M20.3711 49.8924L20.3711 49.8923C20.6844 50.116 21.5796 50.429 21.4454 51.3683C21.3671 51.9159 20.8664 52.2932 20.2307 52.0391C19.5594 51.7708 19.6998 50.9657 20.1026 50.6974C20.5054 50.429 20.4159 50.0713 20.3711 49.8924Z" fill="#EF99BE"/>
</g>
<path d="M108.134 25.9225H106.747V30.4928C106.246 30.2114 105.525 29.9702 104.583 29.7693C103.701 29.5763 102.937 29.4798 102.292 29.4798C100.74 29.4798 99.4374 29.7411 98.3853 30.2637C97.7914 30.5611 97.4944 30.951 97.4944 31.4333C97.4944 32.0765 97.8508 32.398 98.5635 32.398C98.9962 32.398 99.5604 32.2775 100.256 32.0363C100.706 31.8835 101.283 31.6906 101.987 31.4575C102.284 31.361 102.81 31.3128 103.565 31.3128C105.033 31.3128 106.127 31.7429 106.849 32.603C107.196 33.013 107.37 33.4954 107.37 34.0501C107.37 35.3283 105.898 37.2979 104.201 38.0294C103.497 38.3349 102.827 38.5078 102.191 38.548C102.801 39.1268 102.871 39.6269 103.336 40.0673C103.743 40.4532 107.205 45.2767 113.67 45.2767L114.955 47.2664C114.692 47.4834 114.154 47.5919 113.339 47.5919C104.698 45.8555 102.954 41.4461 102.496 41.02C102.25 40.7868 101.902 40.3005 101.452 39.5609C101.071 38.9258 100.752 38.6042 100.498 38.5962C98.9283 38.556 96.9938 38.4676 96.1454 37.9691C95.6109 37.6556 95.3436 37.2255 95.3436 36.6789C95.3436 36.0036 95.7678 35.6659 96.6163 35.6659C96.9302 35.6659 97.5835 35.8991 98.5762 36.3653C99.5774 36.8236 100.4 37.0527 101.045 37.0527C102.335 37.0527 104.269 36.5824 105.398 36.0036C105.949 35.7222 106.849 34.4118 106.849 34.0018C106.849 33.3909 106.339 33.0854 105.321 33.0854C105.007 33.0854 103.994 33.3024 102.28 33.7366C101.27 33.9938 100.651 34.1224 100.422 34.1224C99.0725 34.1224 97.9611 33.5195 97.0872 32.3136C96.663 31.7348 96.4508 31.1118 96.4508 30.4445C96.4424 29.0859 97.4223 28.1695 99.3907 27.6952C100.197 27.5022 100.956 27.4058 101.669 27.4058C102.483 27.4058 103.637 27.5947 105.13 27.9725V25.9225H95V24.4755H108.134V25.9225Z" fill="#FDFFEE"/>
<path d="M128.102 24.4755L128.077 25.9225H126.906V33.3386C126.906 34.4239 126.346 35.4087 125.226 36.293C124.165 37.1371 123.05 37.5591 121.879 37.5591C120.742 37.5591 119.533 37.0889 118.252 36.1483C117.157 37.0889 115.838 37.5591 114.294 37.5591C113.522 37.5591 112.741 37.326 111.952 36.8597C111.222 36.4337 110.616 35.8991 110.132 35.2559C109.598 34.5405 109.33 33.7687 109.33 32.9407C109.33 31.8393 109.644 30.7741 110.272 29.7451C110.874 28.7483 111.676 27.9363 112.677 27.3093C113.237 27.8961 113.878 28.5393 114.599 29.2387C113.912 29.8014 113.22 30.3963 112.525 31.0234C111.566 31.8916 111.087 32.8764 111.087 33.9777C111.087 35.674 111.727 36.5221 113.008 36.5221C114.043 36.5221 114.947 36.2206 115.719 35.6177C116.466 35.0389 116.992 34.2712 117.297 33.3145C117.526 32.599 117.662 32.0644 117.704 31.7107L120.148 32.8924C120.097 33.5034 119.876 34.1345 119.486 34.7857C119.308 35.0831 119.181 35.268 119.104 35.3404C119.35 35.7021 119.91 35.883 120.784 35.883C122.295 35.883 123.431 35.3926 124.195 34.4118C124.543 33.9616 124.717 33.4873 124.717 32.9889L124.691 25.9225H107.829V24.4755H128.102Z" fill="#FDFFEE"/>
<path d="M140.371 25.9225H131.895V27.8519C131.929 27.8519 131.963 27.868 131.996 27.9002C132.03 27.9323 132.06 27.9484 132.086 27.9484C132.018 27.9484 131.98 27.9444 131.971 27.9363C131.971 27.8961 132.603 27.7675 133.867 27.5505C134.334 27.4701 134.796 27.4299 135.255 27.4299C137.164 27.4299 138.39 27.9363 138.933 28.9493C139.297 29.6245 139.48 30.9872 139.48 33.0371V37.6797C139.302 37.6154 138.627 37.3541 137.456 36.8959C137.456 36.6387 137.401 36.4739 137.291 36.4015C136.841 36.6507 136.472 36.8396 136.184 36.9683C135.267 37.3783 134.202 37.5833 132.989 37.5833C131.318 37.5833 130.028 37.0848 129.12 36.088C128.679 35.6056 128.458 35.067 128.458 34.4721C128.458 33.8049 128.806 33.1417 129.502 32.4824C130.851 31.2042 132.527 30.5651 134.529 30.5651C135.742 30.5651 136.718 30.8304 137.456 31.361V30.2516C137.083 29.8014 136.718 29.4999 136.362 29.3472C136.014 29.1945 135.535 29.1261 134.924 29.1422C133.558 29.1663 132.306 29.4035 131.169 29.8537C130.66 30.0546 130.164 30.2355 129.68 30.3963V29.504C129.791 29.4155 129.952 29.2829 130.164 29.106C130.198 29.0658 130.219 29.0417 130.227 29.0337V25.9225H127.619V24.4755H140.371V25.9225ZM137.456 33.5557C137.456 33.202 137.011 32.8844 136.12 32.603C135.382 32.3699 134.767 32.2533 134.275 32.2533C132.484 32.2533 131.05 32.8643 129.973 34.0863C129.54 34.5766 129.324 34.9786 129.324 35.2921C129.502 35.879 130.202 36.1724 131.424 36.1724C133.002 36.1724 134.444 35.7986 135.751 35.0509C136.888 34.3998 137.456 33.9014 137.456 33.5557Z" fill="#FDFFEE"/>
<path d="M153.263 25.9225H151.876V30.4928C151.375 30.2114 150.654 29.9702 149.712 29.7693C148.83 29.5763 148.066 29.4798 147.421 29.4798C145.869 29.4798 144.566 29.7411 143.514 30.2637C142.92 30.5611 142.623 30.951 142.623 31.4333C142.623 32.0765 142.98 32.398 143.692 32.398C144.125 32.398 144.689 32.2775 145.385 32.0363C145.835 31.8835 146.412 31.6906 147.116 31.4575C147.413 31.361 147.939 31.3128 148.694 31.3128C150.162 31.3128 151.256 31.7429 151.977 32.603C152.325 33.013 152.499 33.4954 152.499 34.0501C152.499 35.3283 151.651 36.3332 149.954 37.0647C149.25 37.3702 148.579 37.5431 147.943 37.5833C148.554 38.1621 149.135 38.4515 149.687 38.4515C149.865 38.4515 150.056 38.4274 150.259 38.3791L151.545 40.3688C151.282 40.5859 150.743 40.6944 149.928 40.6944C149.267 40.6944 148.707 40.4814 148.248 40.0553C148.002 39.8222 147.655 39.3358 147.205 38.5962C146.823 37.9611 146.505 37.6395 146.25 37.6315C144.681 37.5913 143.472 37.322 142.623 36.8236C142.089 36.51 141.822 36.08 141.822 35.5333C141.822 34.858 142.246 34.5204 143.094 34.5204C143.408 34.5204 144.061 34.7535 145.054 35.2198C146.055 35.678 146.878 35.9071 147.523 35.9071C148.813 35.9071 150.022 35.6177 151.15 35.0389C151.702 34.7575 151.977 34.4118 151.977 34.0018C151.977 33.3909 151.468 33.0854 150.45 33.0854C150.136 33.0854 149.122 33.3024 147.409 33.7366C146.399 33.9938 145.78 34.1224 145.55 34.1224C144.201 34.1224 143.09 33.5195 142.216 32.3136C141.792 31.7348 141.58 31.1118 141.58 30.4445C141.571 29.0859 142.551 28.1695 144.52 27.6952C145.326 27.5022 146.085 27.4058 146.798 27.4058C147.612 27.4058 148.766 27.5947 150.259 27.9725V25.9225H140.129V24.4755H153.263V25.9225Z" fill="#FDFFEE"/>
<path d="M164.399 25.9225H157.959V35.6298C157.959 35.9031 158.052 36.1684 158.239 36.4256C158.434 36.707 158.672 36.8477 158.952 36.8477C160.216 36.8477 160.848 35.6097 160.848 33.1336L163.406 34.5204C162.43 36.5703 160.92 37.5913 158.875 37.5833C157.687 37.5752 156.763 37.0607 156.101 36.0398C155.812 35.5976 155.668 35.1555 155.668 34.7133V25.9225H153.008V24.4755H155.668V20.4238L157.959 21.9311V24.4755H164.399V25.9225Z" fill="#FDFFEE"/>
<path d="M168.535 23.2093C168.501 23.2415 168.403 23.2576 168.242 23.2576C168.106 23.2576 167.988 23.2415 167.886 23.2093L167.059 21.6055C166.719 21.0991 166.257 20.7574 165.671 20.5806C165.094 20.3957 164.738 20.1947 164.602 19.9776C164.475 19.6078 164.229 19.0411 163.864 18.2773V18H164.36C165.014 18.1929 165.544 18.3738 165.951 18.5426C166.622 18.824 167.071 19.1496 167.3 19.5194C167.428 19.7204 167.623 20.2349 167.886 21.0629C168.132 21.8427 168.34 22.3853 168.509 22.6908C168.526 22.8355 168.535 23.0084 168.535 23.2093ZM169.286 25.9225H164.106V24.4755H169.286V25.9225ZM167.835 37.8365L165.697 36.715V27.4058H167.835V37.8365Z" fill="#FDFFEE"/>
<path d="M121.169 43.8584V46.9346H120.508V43.8584L117.857 39.9202H118.673L120.848 43.2412L122.994 39.9202H123.791L121.169 43.8584Z" fill="#FDFFEE"/>
<path d="M126.591 41.7129C127.335 41.7129 127.921 41.9905 128.348 42.5457C128.724 43.029 128.911 43.6462 128.911 44.3972C128.911 45.2528 128.672 45.9288 128.193 46.4251C127.772 46.8562 127.238 47.0717 126.591 47.0717C125.846 47.0717 125.26 46.7941 124.833 46.239C124.457 45.7557 124.27 45.1418 124.27 44.3972C124.27 43.5351 124.509 42.8559 124.988 42.3595C125.409 41.9285 125.943 41.7129 126.591 41.7129ZM126.591 42.2714C126.053 42.2714 125.632 42.4901 125.328 42.9277C125.063 43.3065 124.93 43.7964 124.93 44.3972C124.93 45.083 125.102 45.6218 125.445 46.0137C125.736 46.3468 126.118 46.5133 126.591 46.5133C127.128 46.5133 127.549 46.2945 127.853 45.8569C128.118 45.4781 128.251 44.9916 128.251 44.3972C128.251 43.7115 128.08 43.1726 127.736 42.7808C127.439 42.4412 127.057 42.2714 126.591 42.2714Z" fill="#FDFFEE"/>
<path d="M133.768 41.8501H134.361V46.3663C134.361 47.1566 134.195 47.7215 133.865 48.0612C133.457 48.4792 132.878 48.6882 132.127 48.6882C131.525 48.6882 131.049 48.551 130.7 48.2767C130.389 48.035 130.214 47.7183 130.175 47.3264H130.845C130.897 47.8554 131.328 48.1199 132.137 48.1199C133.224 48.1199 133.768 47.5648 133.768 46.4545V45.9941C133.309 46.5688 132.752 46.8562 132.098 46.8562C131.399 46.8562 130.839 46.5884 130.418 46.0529C130.055 45.5826 129.874 45.0014 129.874 44.3091C129.874 43.4992 130.114 42.8461 130.593 42.3497C131.007 41.9252 131.519 41.7129 132.127 41.7129C132.82 41.7129 133.367 42.0068 133.768 42.5946V41.8501ZM132.156 42.2714C131.684 42.2714 131.289 42.4575 130.972 42.8298C130.68 43.1824 130.535 43.6657 130.535 44.2797C130.535 44.9262 130.703 45.4357 131.04 45.8079C131.331 46.128 131.703 46.288 132.156 46.288C132.674 46.288 133.082 46.0822 133.38 45.6708C133.639 45.305 133.768 44.8413 133.768 44.2797C133.768 43.6592 133.623 43.1759 133.331 42.8298C133.014 42.4575 132.622 42.2714 132.156 42.2714Z" fill="#FDFFEE"/>
<path d="M140.055 42.7906L143.192 46.9346H142.337L139.56 43.2706L138.434 44.3286V46.9346H137.744V39.9202H138.434V43.5449L142.221 39.9202H143.134L140.055 42.7906Z" fill="#FDFFEE"/>
<path d="M148.204 44.4952H144.436C144.456 45.1744 144.63 45.6904 144.961 46.0431C145.245 46.3566 145.621 46.5133 146.087 46.5133C146.819 46.5133 147.314 46.1214 147.573 45.3377H148.204C147.848 46.4937 147.136 47.0717 146.068 47.0717C145.323 47.0717 144.747 46.8039 144.339 46.2684C143.983 45.7916 143.805 45.1744 143.805 44.4168C143.805 43.5482 144.038 42.8624 144.504 42.3595C144.912 41.9285 145.43 41.7129 146.058 41.7129C146.763 41.7129 147.311 41.9709 147.699 42.4869C148.042 42.9375 148.214 43.5286 148.214 44.2601C148.214 44.3058 148.21 44.3842 148.204 44.4952ZM147.563 43.9858C147.537 43.4502 147.391 43.0322 147.126 42.7318C146.861 42.4248 146.508 42.2714 146.068 42.2714C145.627 42.2714 145.268 42.4216 144.99 42.722C144.711 43.0159 144.536 43.4372 144.465 43.9858H147.563Z" fill="#FDFFEE"/>
<path d="M149.454 41.8501H150.076V42.5751C150.464 42.0003 150.989 41.7129 151.649 41.7129C152.231 41.7129 152.672 41.8893 152.97 42.242C153.196 42.5097 153.309 42.9179 153.309 43.4665V46.9346H152.688V43.6037C152.688 43.1335 152.607 42.8069 152.445 42.624C152.251 42.3889 151.96 42.2714 151.571 42.2714C151.137 42.2714 150.775 42.4216 150.484 42.722C150.212 42.9963 150.076 43.4045 150.076 43.9466V46.9346H149.454V41.8501Z" fill="#FDFFEE"/>
<path d="M159.007 39.9202V46.9346H158.376V46.1998C157.961 46.7811 157.421 47.0717 156.754 47.0717C156.042 47.0717 155.482 46.7941 155.074 46.239C154.718 45.7557 154.54 45.1385 154.54 44.3874C154.54 43.5384 154.77 42.8624 155.229 42.3595C155.631 41.9285 156.139 41.7129 156.754 41.7129C157.421 41.7129 157.961 42.0101 158.376 42.6044V39.9202H159.007ZM156.773 42.2714C156.242 42.2714 155.831 42.4869 155.54 42.9179C155.288 43.2902 155.161 43.7833 155.161 44.3972C155.161 45.1026 155.323 45.6447 155.647 46.0235C155.932 46.35 156.307 46.5133 156.773 46.5133C157.278 46.5133 157.67 46.3272 157.948 45.9549C158.233 45.5761 158.376 45.0536 158.376 44.3874C158.376 43.6886 158.214 43.1498 157.89 42.771C157.612 42.4379 157.239 42.2714 156.773 42.2714Z" fill="#FDFFEE"/>
<path d="M160.54 41.8501H161.161L161.132 42.7612C161.385 42.1081 161.864 41.7815 162.57 41.7815C162.621 41.7815 162.706 41.7848 162.822 41.7913L162.812 42.4379C162.715 42.4183 162.647 42.4085 162.608 42.4085C162.123 42.415 161.747 42.6044 161.482 42.9767C161.268 43.2771 161.161 43.7049 161.161 44.2601V46.9346H160.54V41.8501Z" fill="#FDFFEE"/>
<path d="M164.375 43.398H163.715C163.741 42.2746 164.411 41.7129 165.725 41.7129C166.962 41.7129 167.58 42.2224 167.58 43.2412V46.092C167.58 46.3402 167.661 46.4643 167.823 46.4643C167.887 46.4643 167.994 46.4219 168.143 46.337V46.8856C167.942 46.9574 167.774 46.9933 167.638 46.9933C167.185 46.9933 166.958 46.7615 166.958 46.2978V46.1802C166.57 46.7745 165.961 47.0717 165.133 47.0717C164.583 47.0717 164.158 46.9248 163.861 46.6309C163.602 46.3761 163.472 46.0365 163.472 45.612C163.472 45.1483 163.624 44.7826 163.929 44.5148C164.162 44.3123 164.537 44.1719 165.055 44.0935L166.929 43.7898C166.936 43.7441 166.939 43.6984 166.939 43.6527C166.939 43.1041 166.852 42.7383 166.677 42.5555C166.508 42.3661 166.182 42.2714 165.696 42.2714C165.256 42.2714 164.929 42.3628 164.715 42.5457C164.508 42.722 164.395 43.0061 164.375 43.398ZM166.958 44.2895L165.162 44.6225C164.476 44.7401 164.133 45.0634 164.133 45.5924C164.133 45.8863 164.233 46.1214 164.434 46.2978C164.634 46.4676 164.903 46.5525 165.24 46.5525C165.887 46.5525 166.376 46.3076 166.706 45.8177C166.874 45.5696 166.958 45.2561 166.958 44.8773V44.2895Z" fill="#FDFFEE"/>
<defs>
<clipPath id="clip0_0_1">
<rect width="46.9954" height="43.2045" fill="white" transform="translate(17.8135 13.665)"/>
</clipPath>
</defs>
</svg>
